<svg xmlns:xlink="http://www.w3.org/1999/xlink" xmlns="http://www.w3.org/2000/svg" width="18" height="18" viewBox="0 0 18 18">
  <path id="ic-casino" d="M16.194,8.305A5.932,5.932,0,1,0,17.932,12.5,5.913,5.913,0,0,0,16.194,8.305ZM12.509,5.569a6.9,6.9,0,0,1,2.518.674L16.062,4.45a8.965,8.965,0,0,0-3.553-.95Zm3.4,1.182a6.978,6.978,0,0,1,1.844,1.844L19.541,7.56a9.055,9.055,0,0,0-2.6-2.6Zm2.352,2.722a6.91,6.91,0,0,1,.673,2.518H21a8.964,8.964,0,0,0-.95-3.553Zm.673,3.535a6.9,6.9,0,0,1-.674,2.518l1.792,1.035A8.959,8.959,0,0,0,21,13.009Zm-1.182,3.4a6.977,6.977,0,0,1-1.844,1.844l1.035,1.792a9.051,9.051,0,0,0,2.6-2.6Zm-2.722,2.352a6.9,6.9,0,0,1-2.518.674V21.5a8.965,8.965,0,0,0,3.553-.95Zm-3.535.674a6.906,6.906,0,0,1-2.518-.673L7.939,20.55a8.964,8.964,0,0,0,3.553.95Zm-3.4-1.182a6.973,6.973,0,0,1-1.844-1.844L4.459,17.44a9.052,9.052,0,0,0,2.6,2.6ZM5.743,15.526a6.907,6.907,0,0,1-.674-2.518H3a8.962,8.962,0,0,0,.95,3.553Zm-.674-3.535a6.9,6.9,0,0,1,.674-2.518L3.95,8.439A8.963,8.963,0,0,0,3,11.991Zm1.182-3.4A6.979,6.979,0,0,1,8.095,6.751L7.06,4.959a9.056,9.056,0,0,0-2.6,2.6ZM8.973,6.243a6.908,6.908,0,0,1,2.518-.674V3.5a8.963,8.963,0,0,0-3.553.95Zm.2,7.628,1.141-.184a1.478,1.478,0,0,0,1.111,1.339V12.831a7.379,7.379,0,0,1-1.061-.366,1.678,1.678,0,0,1-.994-1.556,1.757,1.757,0,0,1,.208-.842,1.989,1.989,0,0,1,1.3-.977,3.3,3.3,0,0,1,.549-.112V8.108h1.149V9a3.345,3.345,0,0,1,.7.181,1.883,1.883,0,0,1,1.29,1.683l-1.128.158a1.2,1.2,0,0,0-.861-1.047v1.935c1.116.316,2.252.582,2.252,1.988a2.055,2.055,0,0,1-1.307,1.869,3.3,3.3,0,0,1-.944.25v.873H11.426v-.884A2.371,2.371,0,0,1,9.174,13.87Zm3.4,1.2a1.41,1.41,0,0,0,.687-.286.966.966,0,0,0,.385-.758c0-.606-.6-.748-1.071-.883ZM11.426,9.934c-.444.07-.941.326-.941.84a.788.788,0,0,0,.581.71c.06.023.179.06.359.112Z" transform="translate(-3 -3.5)" fill="#fff"/>
</svg>